<?xml version="1.0" encoding="UTF-8"?>
<svg id="Capa_2" data-name="Capa 2" xmlns="http://www.w3.org/2000/svg" viewBox="0 0 1368 809.65">
  <defs>
    <style>
      .cls-1 {
        fill: #aec000;
      }

      .cls-2 {
        fill: #5d7000;
        stroke: #5d7000;
      }

      .cls-2, .cls-3 {
        stroke-linecap: round;
        stroke-linejoin: round;
        stroke-width: 2px;
      }

      .cls-4 {
        fill: #c7d322;
      }

      .cls-3 {
        fill: #2f4700;
        stroke: #2f4700;
      }
    </style>
  </defs>
  <g id="Capa_1-2" data-name="Capa 1">
    <g>
      <path class="cls-2" d="M1206.65,567.47c-102.71,97.65-289.55,180.13-508.61,219.97C345.35,851.58,34.3,765.35,3.29,594.86-27.7,424.36,260.11,172.67,612.79,108.54c29.71-5.4,58.98-9.2,87.72-11.48-249.23,79.26-389.63,216.84-363.91,358.29,31.01,170.51,323.41,282.06,670.82,199.41,73.45-17.48,140.18-48.2,199.22-87.3Z"/>
      <path class="cls-3" d="M832.88,582.14c-39.8,4.8-79.03,6.92-117.19,6.78,222.91-75.83,339.25-248.61,317.52-374.28C1007.93,68.45,716.46,4.72,437.35,96.65c81.88-37.43,184.67-63.56,302.12-81.14,312.19-46.71,599.53,21.52,625.61,172.39,26.08,150.87-216.11,356.1-532.19,394.23Z"/>
      <ellipse class="cls-1" cx="690.5" cy="344.93" rx="194.82" ry="158.56"/>
      <path class="cls-4" d="M885.4,344.92c0,87.57-87.22,158.56-194.82,158.56-24.91,0-86.75,0-142.78-50.63-4.2-10.61-10.76-35.99,22.05-66.14,50.6-46.5,137.87-10.04,158.84-25.8,18.91-14.21,21.96-45.69,61.78-71.91,30.24-19.91,60.84-19.44,73.63-16.25,13.61,21.65,21.29,46.19,21.29,72.17Z"/>
    </g>
  </g>
</svg>